<?xml version="1.0" encoding="UTF-8"?>
<svg version="1.1" xmlns="http://www.w3.org/2000/svg" width="500" height="500">
<path d="M0 0 C165 0 330 0 500 0 C500 165 500 330 500 500 C335 500 170 500 0 500 C0 335 0 170 0 0 Z " fill="#222222" transform="translate(0,0)"/>
<path d="M0 0 C13.2 0 26.4 0 40 0 C48.34521047 21.77061062 56.62045584 43.56391628 64.79216003 65.40005112 C66.23712335 69.26029996 67.68356954 73.11999312 69.12988281 76.97973633 C71.54777871 83.43272625 73.96506206 89.88594525 76.38183594 96.33935547 C79.90180136 105.73840304 83.4231072 115.13694784 86.9453125 124.53515625 C87.22819059 125.28997284 87.51106869 126.04478943 87.80251884 126.82247925 C90.90214018 135.0930917 94.00304543 143.36322042 97.10668945 151.63232422 C97.3821803 152.36633579 97.65767115 153.10034737 97.9415102 153.85660172 C99.04706179 156.80214509 100.1526307 159.74768194 101.25839424 162.69314575 C104.5616055 171.492293 107.85881269 180.29364188 111.1465168 189.09859562 C113.27597734 194.8010811 115.4098397 200.50190631 117.54694939 206.2015295 C118.78951441 209.51608228 120.0298434 212.83142864 121.26428223 216.14901733 C122.61307923 219.77390076 123.97216204 223.39487985 125.33203125 227.015625 C125.91151268 228.58093712 125.91151268 228.58093712 126.50270081 230.1778717 C131.42427515 243.21824461 136.60680188 256.89082191 150 263 C156.26134677 264.98275981 162.46477405 265.54349525 169 266 C169 269.3 169 272.6 169 276 C129.07 276 89.14 276 48 276 C48 272.7 48 269.4 48 266 C48.79059814 265.98018066 49.58119629 265.96036133 50.39575195 265.93994141 C54.03495922 265.84371812 57.67366711 265.73443858 61.3125 265.625 C62.55580078 265.5940625 63.79910156 265.563125 65.08007812 265.53125 C78.52518299 265.39437592 78.52518299 265.39437592 91 261 C96.98607643 245.85874786 84.54328428 224.29464639 79.375 210.3125 C78.56514789 208.1132437 77.75541529 205.91394339 76.94580078 203.71459961 C72.28674123 191.07826008 67.57864018 178.4638789 62.64208984 165.93286133 C62.28324707 165.01786865 61.9244043 164.10287598 61.5546875 163.16015625 C61.09811768 162.00978882 61.09811768 162.00978882 60.63232422 160.83618164 C60 159 60 159 60 157 C30.63 157 1.26 157 -29 157 C-29.33 158.65 -29.66 160.3 -30 162 C-30.46255698 163.4475452 -30.95816749 164.88488008 -31.48364258 166.31079102 C-31.78559036 167.13642044 -32.08753815 167.96204987 -32.39863586 168.81269836 C-32.72728134 169.70079697 -33.05592682 170.58889557 -33.39453125 171.50390625 C-34.10497991 173.44557868 -34.8152593 175.38731305 -35.52539062 177.32910156 C-35.89897705 178.34685669 -36.27256348 179.36461182 -36.6574707 180.41320801 C-44.50722938 201.81628602 -51.93383166 223.32701053 -59 245 C-59.33 245.99 -59.66 246.98 -60 248 C-60.36641068 251.95723529 -60.41998983 254.26081791 -58.4375 257.75 C-48.63314512 266.80017374 -32.45304874 265.5141521 -20 266 C-20 269.3 -20 272.6 -20 276 C-53.33 276 -86.66 276 -121 276 C-121 272.7 -121 269.4 -121 266 C-119.44152344 265.76216797 -119.44152344 265.76216797 -117.8515625 265.51953125 C-105.90176121 263.57021185 -94.75111487 260.6635073 -87.1875 250.4375 C-84.32626926 245.90408385 -82.26194046 241.18097741 -80.21484375 236.24609375 C-79.68928391 234.98682571 -79.68928391 234.98682571 -79.15310669 233.70211792 C-75.71523191 225.40867498 -72.50587982 217.03827096 -69.375 208.625 C-69.07063019 207.81105774 -68.76626038 206.99711548 -68.45266724 206.1585083 C-61.14641244 186.61290372 -54.10582318 166.9701672 -47.04638672 147.33447266 C-41.83058775 132.82850382 -36.57588157 118.33881763 -31.21582031 103.88546753 C-27.23357476 93.13995753 -23.31883914 82.37074432 -19.43359375 71.58984375 C-19.18781208 70.90788563 -18.94203041 70.22592751 -18.68880081 69.52330399 C-16.20882372 62.64106211 -13.73166931 55.75781039 -11.25889492 48.87297726 C-10.55669101 46.91837096 -9.85389365 44.9639791 -9.15089417 43.00965881 C-8.28713792 40.6079532 -7.42452685 38.20583526 -6.56333923 35.8032074 C-6.16788406 34.70404495 -5.77242889 33.60488251 -5.36499023 32.47241211 C-4.9821286 31.40755585 -4.59926697 30.34269958 -4.20480347 29.24557495 C-2.54609706 24.77724786 -0.74622389 20.36718192 1.07530212 15.96290588 C2.97936916 9.86191705 1.78958489 6.26354713 0 0 Z " fill="#F3F2EE" transform="translate(226,81)"/>
<path d="M0 0 C2.569925 2.569925 3.39692578 5.39728608 4.58984375 8.75 C4.97467422 9.80803833 4.97467422 9.80803833 5.36727905 10.88745117 C5.93061253 12.43699927 6.49155556 13.98741792 7.05044556 15.53857422 C8.58654725 19.80099615 10.13994072 24.057078 11.6953125 28.3125 C12.03027237 29.22942627 12.36523224 30.14635254 12.71034241 31.09106445 C15.45053957 38.56385989 18.27141663 46.00434027 21.1171875 53.4375 C21.5483638 54.56478516 21.9795401 55.69207031 22.42378235 56.85351562 C24.14547655 61.35163452 25.86855403 65.84917605 27.60202026 70.34277344 C28.81884577 73.49755196 30.0290174 76.65481689 31.23828125 79.8125 C31.60432465 80.75472412 31.97036804 81.69694824 32.34750366 82.66772461 C32.6831131 83.5469458 33.01872253 84.42616699 33.36450195 85.33203125 C33.65758743 86.09233643 33.95067291 86.8526416 34.25263977 87.63598633 C35 90 35 90 36 96 C12.57 96 -10.86 96 -35 96 C-31.61692015 84.72306717 -31.61692015 84.72306717 -29.8984375 79.859375 C-29.49890869 78.72838379 -29.09937988 77.59739258 -28.68774414 76.43212891 C-28.25453857 75.21702637 -27.82133301 74.00192383 -27.375 72.75 C-27.14811493 72.11213562 -26.92122986 71.47427124 -26.68746948 70.81707764 C-21.90593175 57.3857183 -16.9910697 44.00296146 -12.0625 30.625 C-11.50704498 29.11335266 -11.50704498 29.11335266 -10.94036865 27.57116699 C-9.87107705 24.66340991 -8.79752608 21.75726153 -7.72265625 18.8515625 C-7.40632736 17.99013641 -7.08999847 17.12871033 -6.76408386 16.24118042 C-4.71669155 10.72662702 -2.45228784 5.34668848 0 0 Z " fill="#242424" transform="translate(241,121)"/>
<path d="M0 0 C1.65 0 3.3 0 5 0 C5.33 2.31 5.66 4.62 6 7 C6.33 7 6.66 7 7 7 C7 4.69 7 2.38 7 0 C8.98 0 10.96 0 13 0 C13 2.64 13 5.28 13 8 C13.66 8 14.32 8 15 8 C15 5.36 15 2.72 15 0 C20.61 0 26.22 0 32 0 C32 1.65 32 3.3 32 5 C30.02 4.34 28.04 3.68 26 3 C26 3.66 26 4.32 26 5 C26.66 5 27.32 5 28 5 C28 5.99 28 6.98 28 8 C27.34 8 26.68 8 26 8 C26 8.66 26 9.32 26 10 C27.98 9.67 29.96 9.34 32 9 C32 10.32 32 11.64 32 13 C28.37 13 24.74 13 21 13 C21.66 9.7 22.32 6.4 23 3 C21.68 2.67 20.36 2.34 19 2 C18.34 5.3 17.68 8.6 17 12 C15.35 12.33 13.7 12.66 12 13 C11.34 12.01 10.68 11.02 10 10 C9.67 10.99 9.34 11.98 9 13 C7.35 13 5.7 13 4 13 C3.32942113 11.2097939 2.6636531 9.41778511 2 7.625 C1.62875 6.62726563 1.2575 5.62953125 0.875 4.6015625 C0 2 0 2 0 0 Z " fill="#CBCBC8" transform="translate(245,433)"/>
<path d="M0 0 C1.98 0 3.96 0 6 0 C5.67 1.65 5.34 3.3 5 5 C5.99 5 6.98 5 8 5 C7.67 3.35 7.34 1.7 7 0 C8.98 0 10.96 0 13 0 C13 0.66 13 1.32 13 2 C12.34 2 11.68 2 11 2 C11 4.97 11 7.94 11 11 C11.66 11 12.32 11 13 11 C13 11.66 13 12.32 13 13 C11.02 13 9.04 13 7 13 C7.33 11.35 7.66 9.7 8 8 C6.68 8 5.36 8 4 8 C4 8.99 4 9.98 4 11 C4.66 11 5.32 11 6 11 C6 11.66 6 12.32 6 13 C4.02 13 2.04 13 0 13 C0 8.71 0 4.42 0 0 Z " fill="#DBDAD7" transform="translate(197,433)"/>
<path d="M0 0 C1.98 0 3.96 0 6 0 C5.67 1.65 5.34 3.3 5 5 C6.32 5 7.64 5 9 5 C9 4.01 9 3.02 9 2 C8.34 2 7.68 2 7 2 C7 1.34 7 0.68 7 0 C8.98 0 10.96 0 13 0 C13 4.29 13 8.58 13 13 C11.02 13 9.04 13 7 13 C7 12.34 7 11.68 7 11 C7.66 11 8.32 11 9 11 C9 10.01 9 9.02 9 8 C7.68 8 6.36 8 5 8 C5.33 9.65 5.66 11.3 6 13 C4.02 13 2.04 13 0 13 C0 12.34 0 11.68 0 11 C0.66 11 1.32 11 2 11 C2 8.03 2 5.06 2 2 C1.34 2 0.68 2 0 2 C0 1.34 0 0.68 0 0 Z " fill="#DFDEDB" transform="translate(304,433)"/>
<path d="M0 0 C7.39954511 -0.36391205 7.39954511 -0.36391205 10.0625 1.25 C11 3 11 3 10.75 4.9375 C10.5025 5.618125 10.255 6.29875 10 7 C9.814375 7.7425 9.62875 8.485 9.4375 9.25 C9.293125 9.8275 9.14875 10.405 9 11 C9.66 11 10.32 11 11 11 C11 11.66 11 12.32 11 13 C9.0625 12.6875 9.0625 12.6875 7 12 C6.67 11.01 6.34 10.02 6 9 C5.34 9 4.68 9 4 9 C4.33 10.32 4.66 11.64 5 13 C3.35 13 1.7 13 0 13 C0 8.71 0 4.42 0 0 Z " fill="#D2D1CE" transform="translate(332,433)"/>
<path d="M0 0 C6.0546875 -0.1953125 6.0546875 -0.1953125 8 0 C10 2 10 2 10.1875 4.4375 C10 7 10 7 9 10 C9.66 10.33 10.32 10.66 11 11 C11 11.66 11 12.32 11 13 C6.125 12.125 6.125 12.125 5 11 C5 11.66 5 12.32 5 13 C3.35 13 1.7 13 0 13 C0 8.71 0 4.42 0 0 Z " fill="#E6E5E2" transform="translate(225,433)"/>
<path d="M0 0 C1.32 0 2.64 0 4 0 C4.67057887 1.7902061 5.3363469 3.58221489 6 5.375 C6.556875 6.87160156 6.556875 6.87160156 7.125 8.3984375 C8 11 8 11 8 13 C6.35 13 4.7 13 3 13 C3 12.34 3 11.68 3 11 C2.34 11 1.68 11 1 11 C1 11.66 1 12.32 1 13 C-0.98 13 -2.96 13 -5 13 C-5 12.34 -5 11.68 -5 11 C-4.34 11 -3.68 11 -3 11 C-2.87625 9.9275 -2.7525 8.855 -2.625 7.75 C-2.10356064 4.62136385 -1.59911746 2.66519576 0 0 Z " fill="#C8C7C4" transform="translate(163,433)"/>
<path d="M0 0 C3.63 0 7.26 0 11 0 C11 1.65 11 3.3 11 5 C9.02 4.34 7.04 3.68 5 3 C5 3.66 5 4.32 5 5 C5.66 5 6.32 5 7 5 C7 5.99 7 6.98 7 8 C6.34 8 5.68 8 5 8 C5 8.66 5 9.32 5 10 C6.98 9.67 8.96 9.34 11 9 C11 10.32 11 11.64 11 13 C7.37 13 3.74 13 0 13 C0.66 9.7 1.32 6.4 2 3 C1.34 3 0.68 3 0 3 C0 2.01 0 1.02 0 0 Z " fill="#E6E5E1" transform="translate(319,433)"/>
<path d="M0 0 C3.3 0 6.6 0 10 0 C10 1.65 10 3.3 10 5 C9.34 5 8.68 5 8 5 C8 4.34 8 3.68 8 3 C6.68 3 5.36 3 4 3 C4 3.66 4 4.32 4 5 C4.99 5 5.98 5 7 5 C6.67 6.32 6.34 7.64 6 9 C5.34 8.67 4.68 8.34 4 8 C4 8.66 4 9.32 4 10 C5.32 10 6.64 10 8 10 C8 9.34 8 8.68 8 8 C8.66 8 9.32 8 10 8 C10 9.65 10 11.3 10 13 C6.7 13 3.4 13 0 13 C0 8.71 0 4.42 0 0 Z " fill="#E8E7E4" transform="translate(173,433)"/>
<path d="M0 0 C3.3 0 6.6 0 10 0 C10 1.65 10 3.3 10 5 C9.34 5 8.68 5 8 5 C8 4.34 8 3.68 8 3 C6.68 3 5.36 3 4 3 C4 3.66 4 4.32 4 5 C4.99 5 5.98 5 7 5 C6.67 6.32 6.34 7.64 6 9 C5.34 8.67 4.68 8.34 4 8 C4 8.66 4 9.32 4 10 C5.98 9.67 7.96 9.34 10 9 C10 10.32 10 11.64 10 13 C6.7 13 3.4 13 0 13 C0 8.71 0 4.42 0 0 Z " fill="#E4E3E0" transform="translate(212,433)"/>
<path d="M0 0 C1.32 0 2.64 0 4 0 C4.20496094 0.68707031 4.40992188 1.37414062 4.62109375 2.08203125 C4.89050781 2.98308594 5.15992188 3.88414062 5.4375 4.8125 C5.83775391 6.15248047 5.83775391 6.15248047 6.24609375 7.51953125 C6.80387873 9.35473055 7.39344575 11.18033726 8 13 C6.35 13 4.7 13 3 13 C3.33 11.68 3.66 10.36 4 9 C2.02 9.99 2.02 9.99 0 11 C0 11.66 0 12.32 0 13 C-1.65 13 -3.3 13 -5 13 C-4.54803755 11.39402675 -4.08817673 9.79027492 -3.625 8.1875 C-3.36976563 7.29417969 -3.11453125 6.40085937 -2.8515625 5.48046875 C-2 3 -2 3 0 0 Z " fill="#E9E8E5" transform="translate(283,433)"/>
<path d="M0 0 C1.65 0 3.3 0 5 0 C5.33 2.31 5.66 4.62 6 7 C6.33 7 6.66 7 7 7 C7 4.69 7 2.38 7 0 C8.98 0 10.96 0 13 0 C12.74438677 2.3431213 12.40729228 4.67843403 12 7 C11.01 7.495 11.01 7.495 10 8 C9.34444881 10.52733235 9.34444881 10.52733235 9 13 C7.35 13 5.7 13 4 13 C3.32942113 11.2097939 2.6636531 9.41778511 2 7.625 C1.62875 6.62726563 1.2575 5.62953125 0.875 4.6015625 C0 2 0 2 0 0 Z " fill="#EAE9E5" transform="translate(245,433)"/>
<path d="M0 0 C2.97 0 5.94 0 9 0 C8.67 1.32 8.34 2.64 8 4 C6.68 3.34 5.36 2.68 4 2 C4 2.66 4 3.32 4 4 C4.66 4 5.32 4 6 4 C6 4.99 6 5.98 6 7 C5.34 7 4.68 7 4 7 C4 7.66 4 8.32 4 9 C5.98 8.67 7.96 8.34 10 8 C10 9.32 10 10.64 10 12 C6.37 12 2.74 12 -1 12 C-0.67 11.01 -0.34 10.02 0 9 C0.06740865 7.43881572 0.08514456 5.8749748 0.0625 4.3125 C0.041875 2.889375 0.02125 1.46625 0 0 Z " fill="#E3E2DE" transform="translate(267,434)"/>
<path d="M0 0 C3.63 0 7.26 0 11 0 C11 1.65 11 3.3 11 5 C10.01 5 9.02 5 8 5 C8 7.64 8 10.28 8 13 C6.02 13 4.04 13 2 13 C2 12.01 2 11.02 2 10 C2.66 10 3.32 10 4 10 C4 7.69 4 5.38 4 3 C3.34 3 2.68 3 2 3 C2 3.66 2 4.32 2 5 C1.34 5 0.68 5 0 5 C0 3.35 0 1.7 0 0 Z " fill="#DEDDDA" transform="translate(292,433)"/>
<path d="M0 0 C3.3 0 6.6 0 10 0 C10 1.65 10 3.3 10 5 C9.34 5 8.68 5 8 5 C8 7.64 8 10.28 8 13 C6.02 13 4.04 13 2 13 C2 12.34 2 11.68 2 11 C2.66 11 3.32 11 4 11 C4 8.36 4 5.72 4 3 C3.34 3 2.68 3 2 3 C2 3.66 2 4.32 2 5 C1.34 5 0.68 5 0 5 C0 3.35 0 1.7 0 0 Z " fill="#E1E0DD" transform="translate(185,433)"/>
<path d="M0 0 C0.99 0 1.98 0 3 0 C4.17664871 3.52994613 4.19850603 6.29455413 4 10 C3.01 11.485 3.01 11.485 2 13 C1.34 13 0.68 13 0 13 C0 11.68 0 10.36 0 9 C-1.98 9.33 -3.96 9.66 -6 10 C-6 9.34 -6 8.68 -6 8 C-5.34 8 -4.68 8 -4 8 C-3.67 7.01 -3.34 6.02 -3 5 C-3.99 5 -4.98 5 -6 5 C-6 4.34 -6 3.68 -6 3 C-4.68 3 -3.36 3 -2 3 C-2 3.66 -2 4.32 -2 5 C-1.34 5 -0.68 5 0 5 C0 3.35 0 1.7 0 0 Z " fill="#4A4948" transform="translate(222,433)"/>
<path d="M0 0 C2.16874252 0.50603992 3.99967627 0.99983813 6 2 C6 1.34 6 0.68 6 0 C6.99 0 7.98 0 9 0 C9.1875 3.375 9.1875 3.375 9 7 C8.01 7.66 7.02 8.32 6 9 C6 8.01 6 7.02 6 6 C4.02 6.33 2.04 6.66 0 7 C0 6.34 0 5.68 0 5 C0.66 5 1.32 5 2 5 C2 4.01 2 3.02 2 2 C1.34 2 0.68 2 0 2 C0 1.34 0 0.68 0 0 Z " fill="#222221" transform="translate(324,436)"/>
<path d="M0 0 C0.99 0.33 1.98 0.66 3 1 C3.25 4.3125 3.25 4.3125 3 8 C1 9.9375 1 9.9375 -1 11 C-2.50662097 7.98675805 -2.17770373 5.31713623 -2 2 C-1.34 1.34 -0.68 0.68 0 0 Z " fill="#323231" transform="translate(318,435)"/>
<path d="M0 0 C1.32 0 2.64 0 4 0 C4.33 1.32 4.66 2.64 5 4 C4.34 4 3.68 4 3 4 C3 5.32 3 6.64 3 8 C2.38125 7.814375 1.7625 7.62875 1.125 7.4375 C-1.04160178 6.76313824 -1.04160178 6.76313824 -3 8 C-1.125 1.125 -1.125 1.125 0 0 Z " fill="#DBDBD8" transform="translate(283,433)"/>
<path d="M0 0 C6.0546875 -0.1953125 6.0546875 -0.1953125 8 0 C10 2 10 2 10.3125 4.5 C10.1578125 5.7375 10.1578125 5.7375 10 7 C9.01 7.66 8.02 8.32 7 9 C7 8.01 7 7.02 7 6 C6.01 6 5.02 6 4 6 C4 4.68 4 3.36 4 2 C2.68 1.34 1.36 0.68 0 0 Z " fill="#AFAEAC" transform="translate(225,433)"/>
<path d="M0 0 C1.65 0 3.3 0 5 0 C5.33 3.3 5.66 6.6 6 10 C5.01 10.33 4.02 10.66 3 11 C2.01 7.37 1.02 3.74 0 0 Z " fill="#DFDFDB" transform="translate(245,433)"/>
<path d="M0 0 C0.99 0.33 1.98 0.66 3 1 C3.73046875 2.84765625 3.73046875 2.84765625 4.1875 5.0625 C4.34605469 5.79597656 4.50460938 6.52945312 4.66796875 7.28515625 C4.83232422 8.13400391 4.83232422 8.13400391 5 9 C3.35 9 1.7 9 0 9 C0.33 7.68 0.66 6.36 1 5 C0.01 4.67 -0.98 4.34 -2 4 C-1.34 4 -0.68 4 0 4 C0 2.68 0 1.36 0 0 Z " fill="#E7E6E3" transform="translate(166,437)"/>
<path d="M0 0 C3.63 0 7.26 0 11 0 C11 1.65 11 3.3 11 5 C9.02 4.34 7.04 3.68 5 3 C5.33 3.99 5.66 4.98 6 6 C5.34 6 4.68 6 4 6 C4 4.68 4 3.36 4 2 C3.01 1.67 2.02 1.34 1 1 C0.67 1.66 0.34 2.32 0 3 C0 2.01 0 1.02 0 0 Z " fill="#C7C7C4" transform="translate(319,433)"/>
<path d="M0 0 C1.485 0.99 1.485 0.99 3 2 C2.67 4.64 2.34 7.28 2 10 C0.04224922 7.06337384 -0.56073149 5.4262944 -1 2 C-0.67 1.34 -0.34 0.68 0 0 Z " fill="#3D3D3B" transform="translate(250,433)"/>
<path d="M0 0 C3.3 0 6.6 0 10 0 C10 1.65 10 3.3 10 5 C9.34 5 8.68 5 8 5 C8 4.34 8 3.68 8 3 C7.4225 2.87625 6.845 2.7525 6.25 2.625 C4 2 4 2 0 0 Z " fill="#DAD9D6" transform="translate(212,433)"/>
<path d="M0 0 C3.3 0 6.6 0 10 0 C10 1.65 10 3.3 10 5 C9.34 5 8.68 5 8 5 C8 4.34 8 3.68 8 3 C7.4225 2.87625 6.845 2.7525 6.25 2.625 C4 2 4 2 0 0 Z " fill="#DCDBD8" transform="translate(173,433)"/>
<path d="M0 0 C1.485 0.99 1.485 0.99 3 2 C2.67 3.98 2.34 5.96 2 8 C1.34 8 0.68 8 0 8 C-1.125 2.25 -1.125 2.25 0 0 Z " fill="#353534" transform="translate(258,433)"/>
<path d="M0 0 C1.32 0.33 2.64 0.66 4 1 C3.67 2.32 3.34 3.64 3 5 C3.99 5.33 4.98 5.66 6 6 C4.02 6.33 2.04 6.66 0 7 C0 6.34 0 5.68 0 5 C0.66 5 1.32 5 2 5 C2 4.01 2 3.02 2 2 C1.34 2 0.68 2 0 2 C0 1.34 0 0.68 0 0 Z " fill="#6A6967" transform="translate(324,436)"/>
<path d="M0 0 C1.32 0.33 2.64 0.66 4 1 C3.67 2.32 3.34 3.64 3 5 C3.99 5.33 4.98 5.66 6 6 C4.02 6.33 2.04 6.66 0 7 C0 6.34 0 5.68 0 5 C0.66 5 1.32 5 2 5 C2 4.01 2 3.02 2 2 C1.34 2 0.68 2 0 2 C0 1.34 0 0.68 0 0 Z " fill="#6A6967" transform="translate(271,436)"/>
<path d="M0 0 C0.33 0.66 0.66 1.32 1 2 C1.66 2 2.32 2 3 2 C3.33 1.34 3.66 0.68 4 0 C4.33 1.65 4.66 3.3 5 5 C4.38125 4.814375 3.7625 4.62875 3.125 4.4375 C0.95839822 3.76313824 0.95839822 3.76313824 -1 5 C-0.67 3.35 -0.34 1.7 0 0 Z " fill="#949390" transform="translate(281,436)"/>
<path d="M0 0 C1.32 0.33 2.64 0.66 4 1 C3.34 2.65 2.68 4.3 2 6 C1.34 6 0.68 6 0 6 C0 4.02 0 2.04 0 0 Z " fill="#ECEBE8" transform="translate(261,434)"/>
</svg>
